<?xml version="1.0" encoding="UTF-8"?>
<svg id="Layer_1" data-name="Layer 1" xmlns="http://www.w3.org/2000/svg" viewBox="0 0 48 47.81">
  <defs>
    <style>
      .cls-1 {
        fill: #5bc4bd;
      }

      .cls-1, .cls-2 {
        stroke-width: 0px;
      }

      .cls-2 {
        fill: #663695;
      }
    </style>
  </defs>
  <rect class="cls-2" x="0" y="17.92" width="14.95" height="29.89" rx="7.47" ry="7.47"/>
  <path class="cls-2" d="M48,32.87h0c0,8.25-6.69,14.95-14.95,14.95h-14.95s0,0,0,0c0-8.25,6.69-14.95,14.95-14.95h14.95Z"/>
  <path class="cls-2" d="M48,29.89h-10.98c-10.45,0-18.92-8.47-18.92-18.92h0C18.11,4.91,23.02,0,29.08,0h7.94c6.06,0,10.98,4.91,10.98,10.98v18.92Z"/>
  <path class="cls-1" d="M7.47,14.95h0c4.13,0,7.47-3.35,7.47-7.47h0C14.95,3.35,11.6,0,7.47,0H0v7.47c0,4.13,3.35,7.47,7.47,7.47Z"/>
</svg>