<?xml version="1.0" encoding="UTF-8"?>
<svg id="Layer_1" data-name="Layer 1" xmlns="http://www.w3.org/2000/svg" viewBox="0 0 300 300">
  <defs>
    <style>
      .cls-1 {
        fill: #5bc4bd;
      }

      .cls-1, .cls-2, .cls-3 {
        stroke-width: 0px;
      }

      .cls-2 {
        fill: #663695;
      }

      .cls-3 {
        fill: #fff;
      }
    </style>
  </defs>
  <rect class="cls-2" width="300" height="300"/>
  <g>
    <rect class="cls-3" x="60.83" y="127.76" width="55.54" height="111.07" rx="27.77" ry="27.77"/>
    <path class="cls-3" d="M239.17,183.29h0c0,30.67-24.86,55.54-55.54,55.54h-55.54s0,0,0,0c0-30.67,24.86-55.54,55.54-55.54h55.54Z"/>
    <path class="cls-3" d="M239.17,172.24h-40.78c-38.82,0-70.29-31.47-70.29-70.29h0c0-22.52,18.26-40.78,40.78-40.78h29.51c22.52,0,40.78,18.26,40.78,40.78v70.29Z"/>
    <path class="cls-1" d="M88.59,116.71h0c15.34,0,27.77-12.43,27.77-27.77h0c0-15.34-12.43-27.77-27.77-27.77h-27.77v27.77c0,15.34,12.43,27.77,27.77,27.77Z"/>
  </g>
</svg>